<?xml version="1.0" encoding="utf-8"?>
<!-- Generator: Adobe Illustrator 23.0.4, SVG Export Plug-In . SVG Version: 6.00 Build 0)  -->
<svg version="1.1" id="Layer_1" xmlns="http://www.w3.org/2000/svg" xmlns:xlink="http://www.w3.org/1999/xlink" x="0px" y="0px"
	 viewBox="0 0 792 251.66" style="enable-background:new 0 0 792 251.66;" xml:space="preserve">
<style type="text/css">
	.st0{fill:#FFFFFF;}
</style>
<g>
	<g>
		<g>
			<g>
				<path class="st0" d="M106.39,242.47c-1.25,0-2.5-0.29-3.65-0.86l-67.09-33.55c-4.03-2.01-5.66-6.91-3.65-10.94
					c2.02-4.03,6.91-5.66,10.94-3.65l63.45,31.72l58.94-29.47v-57.02l-62.59-31.29c-4.03-2.01-5.66-6.91-3.65-10.94
					c2.02-4.03,6.91-5.66,10.94-3.65l67.09,33.55c2.76,1.38,4.51,4.2,4.51,7.29v67.1c0,3.09-1.75,5.91-4.51,7.29l-67.09,33.55
					C108.89,242.18,107.64,242.47,106.39,242.47z"/>
			</g>
		</g>
		<g>
			<path class="st0" d="M106.38,175.38c-1.23,0-2.47-0.28-3.64-0.86l-67.09-33.55c-2.76-1.38-4.51-4.2-4.51-7.29V66.58
				c0-3.09,1.75-5.91,4.51-7.29l67.09-33.55c2.29-1.15,5-1.15,7.29,0l67.09,33.55c4.03,2.01,5.66,6.91,3.65,10.94
				c-2.02,4.03-6.91,5.66-10.94,3.65l-63.45-31.72L47.45,71.62v57.02l62.59,31.29c4.03,2.01,5.66,6.91,3.65,10.94
				C112.25,173.72,109.37,175.38,106.38,175.38z"/>
		</g>
	</g>
	<g>
		<g>
			<path class="st0" d="M269.33,174.1c-27.32,0-48.67-13.57-49.57-39.26h32.93c0.9,9.77,7.06,14.47,15.74,14.47
				c9.05,0,14.84-4.52,14.84-11.94c0-23.52-63.5-10.86-63.14-55.91c0-24.06,19.72-37.45,46.32-37.45
				c27.68,0,46.32,13.75,47.58,37.99h-33.47c-0.54-8.14-6.33-13.03-14.65-13.21c-7.42-0.18-13.03,3.62-13.03,11.58
				c0,22.07,62.78,12.12,62.78,54.64C315.65,156.37,299.01,174.1,269.33,174.1z"/>
			<path class="st0" d="M384.76,127.24h-19.18v45.59h-30.94V45.83h50.12c31.12,0,46.68,17.55,46.68,40.89
				C431.44,107.7,417.15,127.24,384.76,127.24z M382.41,102.64c12.3,0,17.55-6.15,17.55-15.92s-5.25-15.92-17.55-15.92h-16.83v31.84
				H382.41z"/>
			<path class="st0" d="M447.54,45.83h30.94v127.01h-30.94V45.83z"/>
			<path class="st0" d="M552.84,45.83c31.12,0,46.68,17.91,46.68,39.98c0,15.92-8.68,30.94-28.22,36.73l29.31,50.3h-34.92
				l-26.42-47.94h-7.42v47.94h-30.94V45.83H552.84z M551.03,71.52h-19.18V103h19.18c11.58,0,17.01-5.97,17.01-15.92
				C568.04,77.67,562.61,71.52,551.03,71.52z"/>
			<path class="st0" d="M678.95,174.1c-36,0-65.31-26.96-65.31-65.13s29.31-64.95,65.31-64.95c36.18,0,64.95,26.78,64.95,64.95
				S714.95,174.1,678.95,174.1z M678.95,145.88c20.26,0,33.47-14.65,33.47-36.91c0-22.62-13.21-36.91-33.47-36.91
				c-20.63,0-33.65,14.29-33.65,36.91C645.3,131.22,658.32,145.88,678.95,145.88z"/>
		</g>
	</g>
	<g>
		<path class="st0" d="M231.51,224.89h-11.84v-29.61h11.29c6.26,0,9.59,3.45,9.59,7.63c0,3.58-2.17,5.75-5.03,6.77
			c3.15,0.55,5.71,3.71,5.71,7.24C241.22,221.44,237.56,224.89,231.51,224.89z M230.53,199.24h-6.01v8.48h6.01
			c3.15,0,5.07-1.49,5.07-4.22C235.6,200.82,233.68,199.24,230.53,199.24z M230.91,211.68h-6.39v9.25h6.56
			c3.28,0,5.28-1.66,5.28-4.52C236.36,213.47,234.15,211.68,230.91,211.68z"/>
		<path class="st0" d="M256.6,225.27c-6.73,0-11.72-4.77-11.72-12.14c0-7.37,4.77-12.1,11.72-12.1c6.69,0,11.42,4.64,11.42,11.54
			c0,0.81-0.04,1.58-0.17,2.39h-17.94c0.34,3.88,3.11,6.22,6.69,6.22c2.98,0,4.64-1.45,5.54-3.28h5.24
			C266.06,221.99,262.35,225.27,256.6,225.27z M249.95,211.04h12.99c-0.08-3.62-2.94-5.92-6.56-5.92
			C253.1,205.12,250.46,207.34,249.95,211.04z"/>
		<path class="st0" d="M272.79,193.36h4.86v10.78c1.62-1.96,4.26-3.11,7.29-3.11c5.24,0,9.33,3.45,9.33,10.01v13.85h-4.81v-13.12
			c0-4.3-2.34-6.52-5.88-6.52c-3.58,0-5.92,2.21-5.92,6.52v13.12h-4.86V193.36z"/>
		<path class="st0" d="M309.89,201.03c3.96,0,6.69,1.88,8.14,3.79v-3.41h4.9v23.47h-4.9v-3.49c-1.49,2-4.3,3.88-8.22,3.88
			c-6.09,0-10.99-4.99-10.99-12.23S303.71,201.03,309.89,201.03z M310.91,205.25c-3.62,0-7.11,2.73-7.11,7.8
			c0,5.07,3.49,8.01,7.11,8.01c3.66,0,7.11-2.85,7.11-7.92C318.03,208.1,314.58,205.25,310.91,205.25z"/>
		<path class="st0" d="M331.74,201.42l6.65,19.13l6.65-19.13h5.15l-8.95,23.47h-5.79l-8.9-23.47H331.74z"/>
		<path class="st0" d="M353.21,195.2c0-1.75,1.36-3.11,3.11-3.11c1.7,0,3.07,1.36,3.07,3.11c0,1.75-1.36,3.11-3.07,3.11
			C354.58,198.31,353.21,196.94,353.21,195.2z M353.85,201.42h4.86v23.47h-4.86V201.42z"/>
		<path class="st0" d="M375.28,225.27c-6.69,0-11.76-4.77-11.76-12.14c0-7.37,5.28-12.1,11.97-12.1s11.97,4.73,11.97,12.1
			C387.46,220.5,382.01,225.27,375.28,225.27z M375.28,221.06c3.62,0,7.2-2.6,7.2-7.92c0-5.33-3.45-7.88-7.07-7.88
			c-3.66,0-6.94,2.56-6.94,7.88C368.46,218.46,371.62,221.06,375.28,221.06z"/>
		<path class="st0" d="M397.13,224.89h-4.86v-23.47h4.86v3.41c1.36-2.34,3.71-3.79,7.03-3.79v5.03h-1.24
			c-3.58,0-5.79,1.49-5.79,6.48V224.89z"/>
		<path class="st0" d="M418.09,201.03c3.96,0,6.69,1.88,8.14,3.79v-3.41h4.9v23.47h-4.9v-3.49c-1.49,2-4.3,3.88-8.22,3.88
			c-6.09,0-10.99-4.99-10.99-12.23S411.91,201.03,418.09,201.03z M419.11,205.25c-3.62,0-7.12,2.73-7.12,7.8
			c0,5.07,3.49,8.01,7.12,8.01c3.66,0,7.11-2.85,7.11-7.92C426.23,208.1,422.78,205.25,419.11,205.25z"/>
		<path class="st0" d="M437.52,193.36h4.86v31.53h-4.86V193.36z"/>
		<path class="st0" d="M459.84,195.28h5.24l10.39,23.22l10.35-23.22h5.2v29.61h-4.86v-20.28l-9.03,20.28h-3.37l-9.07-20.28v20.28
			h-4.86V195.28z"/>
		<path class="st0" d="M507.51,225.27c-6.73,0-11.72-4.77-11.72-12.14c0-7.37,4.77-12.1,11.72-12.1c6.69,0,11.42,4.64,11.42,11.54
			c0,0.81-0.04,1.58-0.17,2.39h-17.94c0.34,3.88,3.11,6.22,6.69,6.22c2.98,0,4.64-1.45,5.54-3.28h5.24
			C516.97,221.99,513.26,225.27,507.51,225.27z M500.86,211.04h12.99c-0.08-3.62-2.94-5.92-6.56-5.92
			C504.01,205.12,501.37,207.34,500.86,211.04z"/>
		<path class="st0" d="M533.2,201.03c3.07,0,6.31,1.45,8.09,3.66v-11.33h4.9v31.53h-4.9v-3.54c-1.49,2.13-4.3,3.92-8.14,3.92
			c-6.18,0-11.08-4.99-11.08-12.23S526.98,201.03,533.2,201.03z M534.18,205.25c-3.62,0-7.12,2.73-7.12,7.8
			c0,5.07,3.49,8.01,7.12,8.01c3.66,0,7.11-2.85,7.11-7.92C541.29,208.1,537.84,205.25,534.18,205.25z"/>
		<path class="st0" d="M551.94,195.2c0-1.75,1.36-3.11,3.11-3.11c1.7,0,3.07,1.36,3.07,3.11c0,1.75-1.36,3.11-3.07,3.11
			C553.3,198.31,551.94,196.94,551.94,195.2z M552.58,201.42h4.86v23.47h-4.86V201.42z"/>
		<path class="st0" d="M573.71,201.03c5.75,0,9.5,2.85,10.82,7.8h-5.24c-0.81-2.26-2.68-3.71-5.58-3.71c-3.92,0-6.52,2.9-6.52,8.01
			c0,5.15,2.6,8.05,6.52,8.05c2.9,0,4.69-1.28,5.58-3.71h5.24c-1.32,4.6-5.07,7.8-10.82,7.8c-6.73,0-11.5-4.77-11.5-12.14
			C562.21,205.8,566.98,201.03,573.71,201.03z"/>
		<path class="st0" d="M588.74,195.2c0-1.75,1.36-3.11,3.11-3.11c1.7,0,3.07,1.36,3.07,3.11c0,1.75-1.36,3.11-3.07,3.11
			C590.11,198.31,588.74,196.94,588.74,195.2z M589.38,201.42h4.86v23.47h-4.86V201.42z"/>
		<path class="st0" d="M617.29,211.77c0-4.3-2.34-6.52-5.88-6.52c-3.58,0-5.92,2.21-5.92,6.52v13.12h-4.86v-23.47h4.86v2.68
			c1.58-1.92,4.17-3.07,6.99-3.07c5.5,0,9.63,3.45,9.63,10.01v13.85h-4.81V211.77z"/>
		<path class="st0" d="M638.37,225.27c-6.73,0-11.72-4.77-11.72-12.14c0-7.37,4.77-12.1,11.72-12.1c6.69,0,11.42,4.64,11.42,11.54
			c0,0.81-0.04,1.58-0.17,2.39h-17.94c0.34,3.88,3.11,6.22,6.69,6.22c2.98,0,4.64-1.45,5.54-3.28h5.24
			C647.83,221.99,644.12,225.27,638.37,225.27z M631.73,211.04h12.99c-0.08-3.62-2.94-5.92-6.56-5.92
			C634.88,205.12,632.24,207.34,631.73,211.04z"/>
		<path class="st0" d="M654.6,219.05h5.28l-5.16,11.76h-3.15L654.6,219.05z"/>
		<path class="st0" d="M680.08,195.28v25.69h10.01v3.92h-14.87v-29.61H680.08z"/>
		<path class="st0" d="M698.99,195.28v25.69H709v3.92h-14.87v-29.61H698.99z"/>
		<path class="st0" d="M726.55,194.9c6.18,0,11.5,3.11,13.76,8.9h-5.84c-1.58-3.15-4.39-4.64-7.92-4.64
			c-5.88,0-10.14,4.18-10.14,10.86s4.26,10.91,10.14,10.91c3.54,0,6.35-1.49,7.92-4.64h5.84c-2.26,5.79-7.58,8.86-13.76,8.86
			c-8.35,0-15.12-6.22-15.12-15.12C711.43,201.16,718.2,194.9,726.55,194.9z"/>
	</g>
</g>
</svg>
